<?xml version="1.0" encoding="UTF-8" standalone="no"?>
<!DOCTYPE svg PUBLIC "-//W3C//DTD SVG 1.1//EN"
 "http://www.w3.org/Graphics/SVG/1.1/DTD/svg11.dtd">
<!-- Generated by graphviz version 2.40.1 (20161225.0304)
 -->
<!-- Title: dependencies Pages: 1 -->
<svg width="942pt" height="211pt"
 viewBox="0.00 0.00 942.00 211.00" xmlns="http://www.w3.org/2000/svg" xmlns:xlink="http://www.w3.org/1999/xlink">
<g id="graph0" class="graph" transform="scale(1 1) rotate(0) translate(4 207)">
<title>dependencies</title>
<polygon fill="#ffffff" stroke="transparent" points="-4,4 -4,-207 938,-207 938,4 -4,4"/>
<text text-anchor="start" x="446.0091" y="-42.4" font-family="sans-serif" font-weight="bold" font-size="14.00" fill="#000000">Legend</text>
<polygon fill="#ffffb3" stroke="transparent" points="233,-10 233,-30 253,-30 253,-10 233,-10"/>
<text text-anchor="start" x="256.629" y="-15.4" font-family="sans-serif" font-size="14.00" fill="#000000"> &#160;Declarations</text>
<polygon fill="#8dd3c7" stroke="transparent" points="346,-10 346,-30 366,-30 366,-10 346,-10"/>
<text text-anchor="start" x="369.7251" y="-15.4" font-family="sans-serif" font-size="14.00" fill="#000000"> &#160;Module</text>
<polygon fill="#80b1d3" stroke="transparent" points="432,-10 432,-30 452,-30 452,-10 432,-10"/>
<text text-anchor="start" x="455.7812" y="-15.4" font-family="sans-serif" font-size="14.00" fill="#000000"> &#160;Bootstrap</text>
<polygon fill="#fdb462" stroke="transparent" points="529,-10 529,-30 549,-30 549,-10 529,-10"/>
<text text-anchor="start" x="552.6732" y="-15.4" font-family="sans-serif" font-size="14.00" fill="#000000"> &#160;Providers</text>
<polygon fill="#fb8072" stroke="transparent" points="625,-10 625,-30 645,-30 645,-10 625,-10"/>
<text text-anchor="start" x="648.7258" y="-15.4" font-family="sans-serif" font-size="14.00" fill="#000000"> &#160;Exports</text>
<g id="clust1" class="cluster">
<title>cluster_DlDateTimePickerDateModule</title>
<polygon fill="none" stroke="#000000" stroke-dasharray="1,5" points="8,-70 8,-195 230,-195 230,-70 8,-70"/>
</g>
<g id="clust4" class="cluster">
<title>cluster_DlDateTimePickerDateModule_exports</title>
<polygon fill="none" stroke="#000000" points="16,-135 16,-187 222,-187 222,-135 16,-135"/>
</g>
<g id="clust7" class="cluster">
<title>cluster_DlDateTimePickerMomentModule</title>
<polygon fill="none" stroke="#000000" stroke-dasharray="1,5" points="238,-70 238,-122 466,-122 466,-70 238,-70"/>
</g>
<g id="clust13" class="cluster">
<title>cluster_DlDateTimePickerNumberModule</title>
<polygon fill="none" stroke="#000000" stroke-dasharray="1,5" points="474,-70 474,-122 702,-122 702,-70 474,-70"/>
</g>
<g id="clust19" class="cluster">
<title>cluster_DlDateTimePickerStringModule</title>
<polygon fill="none" stroke="#000000" stroke-dasharray="1,5" points="710,-70 710,-122 926,-122 926,-70 710,-70"/>
</g>
<!-- DlDateTimePickerComponent  -->
<g id="node1" class="node">
<title>DlDateTimePickerComponent </title>
<polygon fill="#fb8072" stroke="#000000" points="214.0679,-179 23.9321,-179 23.9321,-143 214.0679,-143 214.0679,-179"/>
<text text-anchor="middle" x="119" y="-156.8" font-family="Times,serif" font-size="14.00" fill="#000000">DlDateTimePickerComponent </text>
</g>
<!-- DlDateTimePickerDateModule -->
<g id="node2" class="node">
<title>DlDateTimePickerDateModule</title>
<polygon fill="#8dd3c7" stroke="#000000" points="214.7114,-114 211.7114,-118 190.7114,-118 187.7114,-114 23.2886,-114 23.2886,-78 214.7114,-78 214.7114,-114"/>
<text text-anchor="middle" x="119" y="-91.8" font-family="Times,serif" font-size="14.00" fill="#000000">DlDateTimePickerDateModule</text>
</g>
<!-- DlDateTimePickerDateModule&#45;&gt;DlDateTimePickerComponent  -->
<g id="edge1" class="edge">
<title>DlDateTimePickerDateModule&#45;&gt;DlDateTimePickerComponent </title>
<path fill="none" stroke="#000000" stroke-dasharray="5,2" d="M119,-114.1061C119,-114.1061 119,-132.991 119,-132.991"/>
<polygon fill="#000000" stroke="#000000" points="115.5001,-132.9909 119,-142.991 122.5001,-132.991 115.5001,-132.9909"/>
</g>
<!-- DlDateTimePickerMomentModule -->
<g id="node3" class="node">
<title>DlDateTimePickerMomentModule</title>
<polygon fill="#8dd3c7" stroke="#000000" points="458.2254,-114 455.2254,-118 434.2254,-118 431.2254,-114 245.7746,-114 245.7746,-78 458.2254,-78 458.2254,-114"/>
<text text-anchor="middle" x="352" y="-91.8" font-family="Times,serif" font-size="14.00" fill="#000000">DlDateTimePickerMomentModule</text>
</g>
<!-- DlDateTimePickerMomentModule&#45;&gt;DlDateTimePickerComponent  -->
<g id="edge2" class="edge">
<title>DlDateTimePickerMomentModule&#45;&gt;DlDateTimePickerComponent </title>
<path fill="none" stroke="#000000" stroke-dasharray="5,2" d="M352,-114.027C352,-130.3976 352,-152 352,-152 352,-152 224.1061,-152 224.1061,-152"/>
<polygon fill="#000000" stroke="#000000" points="224.1061,-148.5001 214.1061,-152 224.106,-155.5001 224.1061,-148.5001"/>
</g>
<!-- DlDateTimePickerNumberModule -->
<g id="node4" class="node">
<title>DlDateTimePickerNumberModule</title>
<polygon fill="#8dd3c7" stroke="#000000" points="693.6573,-114 690.6573,-118 669.6573,-118 666.6573,-114 482.3427,-114 482.3427,-78 693.6573,-78 693.6573,-114"/>
<text text-anchor="middle" x="588" y="-91.8" font-family="Times,serif" font-size="14.00" fill="#000000">DlDateTimePickerNumberModule</text>
</g>
<!-- DlDateTimePickerNumberModule&#45;&gt;DlDateTimePickerComponent  -->
<g id="edge3" class="edge">
<title>DlDateTimePickerNumberModule&#45;&gt;DlDateTimePickerComponent </title>
<path fill="none" stroke="#000000" stroke-dasharray="5,2" d="M588,-114.1061C588,-133.3391 588,-161 588,-161 588,-161 224.1917,-161 224.1917,-161"/>
<polygon fill="#000000" stroke="#000000" points="224.1917,-157.5001 214.1917,-161 224.1916,-164.5001 224.1917,-157.5001"/>
</g>
<!-- DlDateTimePickerStringModule -->
<g id="node5" class="node">
<title>DlDateTimePickerStringModule</title>
<polygon fill="#8dd3c7" stroke="#000000" points="917.5098,-114 914.5098,-118 893.5098,-118 890.5098,-114 718.4902,-114 718.4902,-78 917.5098,-78 917.5098,-114"/>
<text text-anchor="middle" x="818" y="-91.8" font-family="Times,serif" font-size="14.00" fill="#000000">DlDateTimePickerStringModule</text>
</g>
<!-- DlDateTimePickerStringModule&#45;&gt;DlDateTimePickerComponent  -->
<g id="edge4" class="edge">
<title>DlDateTimePickerStringModule&#45;&gt;DlDateTimePickerComponent </title>
<path fill="none" stroke="#000000" stroke-dasharray="5,2" d="M818,-114.2921C818,-136.2057 818,-170 818,-170 818,-170 224.3622,-170 224.3622,-170"/>
<polygon fill="#000000" stroke="#000000" points="224.3623,-166.5001 214.3622,-170 224.3622,-173.5001 224.3623,-166.5001"/>
</g>
</g>
</svg>
